<svg class="icon" viewBox="0 0 1024 1024" xmlns="http://www.w3.org/2000/svg" width="32" height="32"><defs><style/></defs><path d="M170.667 810.667h682.666v42.666H170.667v-42.666z"/><path d="M256 435.2v290.133h85.333V435.2H256zm0-42.667h85.333c23.565 0 42.667 19.102 42.667 42.667v290.133C384 748.898 364.898 768 341.333 768H256c-23.565 0-42.667-19.102-42.667-42.667V435.2c0-23.565 19.102-42.667 42.667-42.667zm213.333-221.866v554.666h85.334V170.667h-85.334zm0-42.667h85.334c23.564 0 42.666 19.102 42.666 42.667v554.666c0 23.565-19.102 42.667-42.666 42.667h-85.334c-23.564 0-42.666-19.102-42.666-42.667V170.667c0-23.565 19.102-42.667 42.666-42.667zm213.334 213.333v384H768v-384h-85.333zm0-42.666H768c23.565 0 42.667 19.102 42.667 42.666v384C810.667 748.898 791.565 768 768 768h-85.333C659.102 768 640 748.898 640 725.333v-384c0-23.564 19.102-42.666 42.667-42.666z"/></svg>
