<svg class="icon" viewBox="0 0 1024 1024" xmlns="http://www.w3.org/2000/svg" width="32" height="32"><defs><style/></defs><path d="M921.605 91.462h33.617v824.809H70.129v-33.078l850.911-1.718.564-790.013zM478.632 125.83c0-18.982 15.244-34.368 34.042-34.368h102.127c18.805 0 34.046 15.387 34.046 34.368v687.34H478.634V125.83zm204.256 206.206c0-18.982 15.237-34.371 34.039-34.371h102.127c18.805 0 34.046 15.39 34.046 34.371v481.137H682.889V332.036zM274.382 538.235c0-18.982 15.24-34.368 34.039-34.368h102.127c18.802 0 34.042 15.387 34.042 34.368v274.937H274.382V538.235zM104.167 710.068h102.127c18.802 0 34.042 15.387 34.042 34.371v68.731H70.128v-68.731c0-18.984 15.241-34.371 34.039-34.371z"/></svg>