<svg class="icon" viewBox="0 0 1536 1024" xmlns="http://www.w3.org/2000/svg" width="96" height="64"><defs><style/></defs><path d="M895.488 614.912c-5.632-2.048-41.472-17.92-19.456-86.528h-.512c58.88-60.416 103.424-157.696 103.424-253.44 0-146.944-97.792-224.256-211.456-224.256-113.664 0-210.944 77.312-210.944 224.256 0 96.256 44.544 193.536 103.424 253.952 23.04 60.416-17.92 82.944-26.624 86.016-119.296 43.008-258.56 121.344-258.56 199.168v29.184c0 105.472 204.8 129.536 394.24 129.536s391.68-24.064 391.68-129.536V814.08c0-79.872-140.288-157.696-265.216-199.168zm0 0" fill="#fff"/></svg>