<svg class="icon" viewBox="0 0 1024 1024" xmlns="http://www.w3.org/2000/svg" width="64" height="64"><defs><style/></defs><path d="M268.026 934.309a117.442 117.442 0 0 1-117.281-117.281V206.972A117.442 117.442 0 0 1 268.026 89.691h488.028a117.442 117.442 0 0 1 117.282 117.281v609.975A117.442 117.442 0 0 1 756.054 934.23zm0-792.976a65.8 65.8 0 0 0-65.72 65.72v609.975a65.8 65.8 0 0 0 65.72 65.72h488.028a65.8 65.8 0 0 0 65.72-65.72V206.972a65.8 65.8 0 0 0-65.72-65.72z"/><path d="M318.944 537.821a25.821 25.821 0 1 1 0-51.562h386.112a25.821 25.821 0 1 1 0 51.562zm0 121.947a25.821 25.821 0 1 1 0-51.24h263.44a25.821 25.821 0 1 1 0 51.642zm0-244.296a25.821 25.821 0 1 1 0-51.642h386.112a25.821 25.821 0 1 1 0 51.642z"/></svg>
